<?xml version="1.0" standalone="no"?><!DOCTYPE svg PUBLIC "-//W3C//DTD SVG 1.1//EN" "http://www.w3.org/Graphics/SVG/1.1/DTD/svg11.dtd"><svg class="icon" height="512" viewBox="0 0 1024 1024" version="1.1" xmlns="http://www.w3.org/2000/svg"><path d="M732.422713 801.784966 732.422713 170.777525 300.322461 170.777525l0 631.007441L732.422713 801.784966zM546.206568 853.565283c-8.686846-8.686846-19.204387-13.032828-31.547507-13.032828-12.347213 0-22.864754 4.345981-31.5516 13.032828s-13.029758 19.203364-13.029758 31.547507c0 12.351306 4.342912 22.867824 13.029758 31.55467s19.204387 13.026688 31.5516 13.026688c12.344143 0 22.86066-4.339842 31.547507-13.026688s13.034874-19.203364 13.034874-31.55467C559.241442 872.768647 554.893414 862.252129 546.206568 853.565283zM438.181249 108.707864c-4.457522 0-8.286734 1.542122-11.487635 4.627391-3.088338 3.201925-4.628414 7.031137-4.628414 11.489682 0 4.458545 1.541099 8.230452 4.628414 11.317767 3.200902 3.199878 7.02909 4.800329 11.487635 4.800329 4.460592 0 8.230452-1.600451 11.319813-4.800329 3.197832-3.087315 4.798283-6.858198 4.798283-11.317767 0-4.457522-1.600451-8.287757-4.798283-11.489682C446.411701 110.249987 442.642864 108.707864 438.181249 108.707864zM730.709699 60.867276c27.434839 0 41.151235 13.71742 41.151235 41.152259l0 819.96093c0 27.434839-13.716396 41.152259-41.151235 41.152259L293.289278 963.132724c-27.435862 0-41.152259-13.71742-41.152259-41.152259L252.137019 102.019535c0-27.434839 13.716396-41.152259 41.152259-41.152259L730.709699 60.867276zM616.682689 134.597511 616.682689 109.736287 470.07668 109.736287l0 24.862247L616.682689 134.598534zM686.780947 512.677397c0-0.227846 0.037974-0.449695 0.037974-0.676541 0-0.230843-0.037974-0.448696-0.037974-0.676541L686.780947 512.677397 686.780947 512.677397zM511.934093 661.686968c-65.11765 0-120.372188-41.641767-140.925053-99.72019l78.48059 0c6.898323 0 12.487533-5.599204 12.487533-12.498526 0-6.892327-5.589211-12.484535-12.487533-12.484535l-99.914058 0c0 0-0.003997 0-0.006995 0-1.46001 0-2.806097 0.347764-4.08523 0.830437-0.428709 0.1479-0.84043 0.28081-1.23916 0.469682-0.897392 0.461687-1.720833 1.025305-2.47832 1.673865-1.714837 1.406047-3.047934 3.161856-3.824407 5.278421l0 0 0 0c-0.529641 1.31211-0.850423 2.725152-0.850423 4.232131l0 99.915058c0 6.898323 5.592208 12.497527 12.487533 12.497527 6.896324 0 12.488533-5.599204 12.488533-12.497527l0-47.871543c30.48633 51.052187 86.065448 85.33894 149.86699 85.33894 88.102067 0 160.784588-65.198595 172.90537-149.933945l-25.465734 0C647.487787 607.70177 586.090615 661.686968 511.934093 661.686968L511.934093 661.686968zM337.087039 511.290337c0 0.241836-0.035976 0.469682-0.035976 0.710518 0 0.239837 0.035976 0.47168 0.035976 0.709519L337.087039 511.290337 337.087039 511.290337zM511.934093 362.314743c65.121648 0 120.375985 41.647763 140.933047 99.726186l-78.487585 0c-6.895325 0-12.488533 5.595206-12.488533 12.481538l0 0.008994c0 0 0 0.007995 0 0.013991 0 3.888364 1.892717 7.228099 4.695816 9.511551 2.149543 1.764803 4.791751 2.966988 7.795715 2.966988l99.913059 0c0.037974 0 0.067954-0.012991 0.104929-0.012991 0.019986 0 0.036975 0.012991 0.056961 0.012991 0.086941 0 0.160891-0.046968 0.247832-0.046968 1.235163-0.045969 2.40437-0.314787 3.512618-0.713516 5.020596-1.613906 8.724085-6.16582 8.724085-11.732046 0-0.283808-0.139905-0.520647-0.160891-0.803455l0-99.09961c0-6.909315-5.589211-12.494529-12.485535-12.494529-6.895325 0-12.487533 5.585213-12.487533 12.494529l0 48.00825c-30.425372-51.139128-86.014482-85.48684-149.873985-85.48684-88.09807 0-160.78159 65.208589-172.907369 149.933945l25.47173 0C376.380398 416.299941 437.777571 362.314743 511.934093 362.314743L511.934093 362.314743z" /></svg>